0
SECTION
2
HEADER
9
$INSUNITS
70
4
9
$ACADVER
1
AC1014
9
$HANDSEED
5
FFFF
0
ENDSEC
0
SECTION
2
TABLES
0
TABLE
2
VPORT
5
8
100
AcDbSymbolTable
0
ENDTAB
0
TABLE
2
LTYPE
5
5
100
AcDbSymbolTable
0
LTYPE
5
14
100
AcDbSymbolTableRecord
100
AcDbLinetypeTableRecord
2
BYBLOCK
70
0
0
LTYPE
5
15
100
AcDbSymbolTableRecord
100
AcDbLinetypeTableRecord
2
BYLAYER
70
0
0
ENDTAB
0
TABLE
2
LAYER
5
2
100
AcDbSymbolTable
70
2
0
LAYER
5
50
100
AcDbSymbolTableRecord
100
AcDbLayerTableRecord
2
0
70
0
6
CONTINUOUS
0
ENDTAB
0
TABLE
2
STYLE
5
3
100
AcDbSymbolTable
70
1
0
STYLE
5
11
100
AcDbSymbolTableRecord
100
AcDbTextStyleTableRecord
2
STANDARD
70
0
0
ENDTAB
0
TABLE
2
VIEW
5
6
100
AcDbSymbolTable
70
0
0
ENDTAB
0
TABLE
2
UCS
5
7
100
AcDbSymbolTable
70
0
0
ENDTAB
0
TABLE
2
APPID
5
9
100
AcDbSymbolTable
70
2
0
APPID
5
12
100
AcDbSymbolTableRecord
100
AcDbRegAppTableRecord
2
ACAD
70
0
0
ENDTAB
0
TABLE
2
DIMSTYLE
5
A
100
AcDbSymbolTable
70
1
0
ENDTAB
0
TABLE
2
BLOCK_RECORD
5
1
100
AcDbSymbolTable
70
1
0
BLOCK_RECORD
5
1F
100
AcDbSymbolTableRecord
100
AcDbBlockTableRecord
2
*MODEL_SPACE
0
BLOCK_RECORD
5
1B
100
AcDbSymbolTableRecord
100
AcDbBlockTableRecord
2
*PAPER_SPACE
0
ENDTAB
0
ENDSEC
0
SECTION
2
BLOCKS
0
BLOCK
5
20
100
AcDbEntity
100
AcDbBlockBegin
2
*MODEL_SPACE
0
ENDBLK
5
21
100
AcDbEntity
100
AcDbBlockEnd
0
BLOCK
5
1C
100
AcDbEntity
100
AcDbBlockBegin
2
*PAPER_SPACE
0
ENDBLK
5
1D
100
AcDbEntity
100
AcDbBlockEnd
0
ENDSEC
0
SECTION
2
ENTITIES
0
LINE
5
100
100
AcDbEntity
8
0
100
AcDbLine
10
19.855737188320592
20
50.978417920743922
30
0
11
18.361742482365486
21
49.554361557069264
31
0
0
ARC
5
101
100
AcDbEntity
8
0
100
AcDbCircle
10
17.326800879666692
20
50.640131274368123
30
-1.5192908393215678e-63
40
1.4999999999999971
210
7.5534483256650226e-48
220
-7.9244137367775375e-48
230
1
100
AcDbArc
50
133.62702717878759
51
313.62702717878767
0
LINE
5
102
100
AcDbEntity
8
0
100
AcDbLine
10
16.291859276967902
20
51.725900991666983
30
1.6421466378806416e-47
11
17.785853982923005
21
53.149957355341648
31
0
0
LINE
5
103
100
AcDbEntity
8
0
100
AcDbLine
10
17.785853982923005
20
53.149957355341648
30
0
11
14.059628281419194
21
57.059185678914048
31
0
0
LINE
5
104
100
AcDbEntity
8
0
100
AcDbLine
10
14.059628281419194
20
57.059185678914048
30
0
11
-14.05962828141919
21
57.059185678914048
31
0
0
LINE
5
105
100
AcDbEntity
8
0
100
AcDbLine
10
-14.05962828141919
20
57.059185678914048
30
0
11
-17.785853982922998
21
53.149957355341648
31
0
0
LINE
5
106
100
AcDbEntity
8
0
100
AcDbLine
10
-17.785853982922998
20
53.149957355341648
30
0
11
-16.291859276967894
21
51.725900991666983
31
0
0
ARC
5
107
100
AcDbEntity
8
0
100
AcDbCircle
10
-17.326800879666692
20
50.640131274368123
30
0
40
1.5000000000000049
210
-7.5534483256650639e-48
220
-7.9244137367774877e-48
230
1
100
AcDbArc
50
-133.6270271787879
51
46.372972821212208
0
LINE
5
108
100
AcDbEntity
8
0
100
AcDbLine
10
-18.361742482365493
20
49.554361557069264
30
-1.6421466378806489e-47
11
-19.855737188320589
21
50.978417920743937
31
0
0
LINE
5
109
100
AcDbEntity
8
0
100
AcDbLine
10
-19.855737188320589
20
50.978417920743937
30
0
11
-21.356320001647706
21
49.404138393511616
31
0
0
LINE
5
110
100
AcDbEntity
8
0
100
AcDbLine
10
-21.356320001647706
20
49.404138393511616
30
0
11
-21.356320001647706
21
7.2933194220518338
31
0
0
LINE
5
111
100
AcDbEntity
8
0
100
AcDbLine
10
-21.356320001647706
20
7.2933194220518338
30
0
11
-2.5475763154669662
21
-22.952313848386623
31
0
0
ARC
5
112
100
AcDbEntity
8
0
100
AcDbCircle
10
2.2724877535296181e-15
20
-21.368061685102088
30
0
40
2.9999999999999978
210
0
220
0
230
1
100
AcDbArc
50
211.87609327744207
51
328.12390672255782
0
LINE
5
113
100
AcDbEntity
8
0
100
AcDbLine
10
2.5475763154669711
20
-22.95231384838663
30
0
11
21.356320001647706
21
7.2933194220518249
31
0
0
LINE
5
114
100
AcDbEntity
8
0
100
AcDbLine
10
21.356320001647706
20
7.2933194220518249
30
0
11
21.356320001647706
21
49.404138393511616
31
0
0
LINE
5
115
100
AcDbEntity
8
0
100
AcDbLine
10
21.356320001647706
20
49.404138393511616
30
0
11
19.855737188320592
21
50.978417920743922
31
0
0
CIRCLE
5
116
100
AcDbEntity
8
0
100
AcDbCircle
10
17.326800879666692
20
15.804040982786461
30
0
40
1.4999999999999991
210
1.0947644252537633e-47
220
-7.5009202194365669e-125
230
1
0
CIRCLE
5
117
100
AcDbEntity
8
0
100
AcDbCircle
10
-17.326800879666692
20
15.804040982786461
30
0
40
1.5000000000000013
210
1.0947644252537633e-47
220
-7.5009202194365669e-125
230
1
0
LWPOLYLINE
5
118
100
AcDbEntity
8
0
100
AcDbPolyline
90
4
70
1
43
0.0
10
-1.3294576145013259
20
50.719110378052399
10
-2.3930862297422983
20
51.466568851039739
10
-6.0078164754875241
20
46.322830884720972
10
-4.9441878602465517
20
45.575372411733632
0
LWPOLYLINE
5
119
100
AcDbEntity
8
0
100
AcDbPolyline
90
8
70
1
43
0.0
10
1.0061512000206521
20
51.361174913407694
42
-0.51945757445969587
10
1.5788554745377248
20
51.361201700017808
10
5.1809357935405975
20
46.236483618723085
10
4.1173771034324558
20
45.488925652612465
10
1.2924842805867343
20
49.507930795441879
10
1.2924842805867343
20
49.507629877677985
10
-1.5319906294019892
20
45.488420187957814
10
-2.5956192446429593
20
46.235878660945161
0
LWPOLYLINE
5
120
100
AcDbEntity
8
0
100
AcDbPolyline
90
4
70
1
43
0.0
10
14.000000000000004
20
25.322892951312891
10
14.00000000000002
20
41.322892951312902
10
-13.999999999999988
20
41.322892951312923
10
-14
20
25.322892951312909
0
ENDSEC
0
SECTION
2
OBJECTS
0
DICTIONARY
5
C
100
AcDbDictionary
3
ACAD_GROUP
350
D
3
ACAD_MLINESTYLE
350
17
0
DICTIONARY
5
D
100
AcDbDictionary
0
DICTIONARY
5
1A
330
C
100
AcDbDictionary
0
DICTIONARY
5
17
100
AcDbDictionary
0
ENDSEC
0
EOF
